<?xml version="1.0" standalone="no"?>
<!DOCTYPE svg PUBLIC "-//W3C//DTD SVG 20010904//EN"
 "http://www.w3.org/TR/2001/REC-SVG-20010904/DTD/svg10.dtd">
<svg version="1.0" xmlns="http://www.w3.org/2000/svg"
 width="168.000000pt" height="168.000000pt" viewBox="0 0 168.000000 168.000000"
 preserveAspectRatio="xMidYMid meet">
<metadata>
Created by potrace 1.11, written by Peter Selinger 2001-2013
</metadata>
<g transform="translate(0.000000,168.000000) scale(0.100000,-0.100000)"
fill="#000000" stroke="none">
<path d="M130 1673 c-42 -15 -91 -59 -110 -99 -20 -44 -20 -53 -18 -748 l3
-703 29 -41 c16 -23 46 -50 70 -62 41 -20 59 -20 734 -20 573 0 698 2 726 14
46 19 94 71 107 115 7 24 9 269 7 732 l-3 696 -29 41 c-16 23 -46 50 -70 62
-41 20 -58 20 -737 19 -382 0 -701 -3 -709 -6z"/>
</g>
</svg>
