<svg xmlns="http://www.w3.org/2000/svg" width="27.761" height="18.508" viewBox="0 0 27.761 18.508"><defs><style>.a{fill:rgba(255,252,252,0.8);}</style></defs><g transform="translate(0 -85.333)"><g transform="translate(0 85.333)"><path class="a" d="M26.338,85.333H1.424A1.428,1.428,0,0,0,0,86.757v15.66a1.428,1.428,0,0,0,1.424,1.424H26.338a1.428,1.428,0,0,0,1.424-1.424V86.757A1.428,1.428,0,0,0,26.338,85.333ZM25.8,86.4,14.7,94.729a1.489,1.489,0,0,1-1.638,0L1.958,86.4Zm-5.931,8.878,6.051,7.474c.006.007.014.013.02.02H1.819c.006-.007.014-.012.02-.02l6.051-7.474a.534.534,0,0,0-.83-.672l-5.991,7.4V87.068l11.354,8.515a2.548,2.548,0,0,0,2.918,0l11.354-8.515v14.94l-5.991-7.4a.534.534,0,0,0-.83.672Z" transform="translate(0 -85.333)"/></g></g></svg>