<svg xmlns="http://www.w3.org/2000/svg" width="13.281" height="25" viewBox="0 0 13.281 25"><defs><style>.a{fill:rgba(255,252,252,0.8);}</style></defs><g transform="translate(-120)"><g transform="translate(120)"><path class="a" d="M131.328,0h-9.375A1.955,1.955,0,0,0,120,1.953V23.047A1.955,1.955,0,0,0,121.953,25h9.375a1.955,1.955,0,0,0,1.953-1.953V1.953A1.955,1.955,0,0,0,131.328,0ZM132.5,23.047a1.172,1.172,0,0,1-1.172,1.172h-9.375a1.172,1.172,0,0,1-1.172-1.172V20.7H132.5Zm0-3.125H120.781V4.3H132.5Zm0-16.406H120.781V1.953A1.172,1.172,0,0,1,121.953.781h9.375A1.172,1.172,0,0,1,132.5,1.953Z" transform="translate(-120)"/></g><g transform="translate(125.469 21.094)"><path class="a" d="M233.172,432a1.172,1.172,0,1,0,1.172,1.172A1.172,1.172,0,0,0,233.172,432Zm0,1.563a.391.391,0,1,1,.391-.391A.391.391,0,0,1,233.172,433.562Z" transform="translate(-232 -432)"/></g><g transform="translate(124.687 1.953)"><path class="a" d="M219.516,40h-3.125a.391.391,0,1,0,0,.781h3.125a.391.391,0,1,0,0-.781Z" transform="translate(-216 -40)"/></g><g transform="translate(130.547 18.359)"><path class="a" d="M336.781,376h-.391a.391.391,0,0,0,0,.781h.391a.391.391,0,0,0,0-.781Z" transform="translate(-336 -376)"/></g><g transform="translate(128.984 18.359)"><path class="a" d="M304.781,376h-.391a.391.391,0,0,0,0,.781h.391a.391.391,0,0,0,0-.781Z" transform="translate(-304 -376)"/></g><g transform="translate(127.422 18.359)"><path class="a" d="M272.781,376h-.391a.391.391,0,0,0,0,.781h.391a.391.391,0,0,0,0-.781Z" transform="translate(-272 -376)"/></g></g></svg>